<mxfile host="Electron" agent="Mozilla/5.0 (Macintosh; Intel Mac OS X 10_15_7) AppleWebKit/537.36 (KHTML, like Gecko) draw.io/28.2.8 Chrome/140.0.7339.240 Electron/38.4.0 Safari/537.36" version="28.2.8">
  <diagram name="Page-1" id="K9XLhmGxNVj2wQPi-ZC2">
    <mxGraphModel dx="1737" dy="893" grid="1" gridSize="10" guides="1" tooltips="1" connect="1" arrows="1" fold="1" page="0" pageScale="1" pageWidth="850" pageHeight="1100" math="0" shadow="0">
      <root>
        <mxCell id="0" />
        <mxCell id="1" parent="0" />
        <mxCell id="EFqk40wnp9_BddOgiKQ0-2" value="" style="shape=umlLifeline;perimeter=lifelinePerimeter;whiteSpace=wrap;html=1;container=1;dropTarget=0;collapsible=0;recursiveResize=0;outlineConnect=0;portConstraint=eastwest;newEdgeStyle={&quot;curved&quot;:0,&quot;rounded&quot;:0};participant=umlActor;" vertex="1" parent="1">
          <mxGeometry x="160" y="540" width="20" height="870" as="geometry" />
        </mxCell>
        <mxCell id="EFqk40wnp9_BddOgiKQ0-3" value="website" style="shape=umlLifeline;perimeter=lifelinePerimeter;whiteSpace=wrap;html=1;container=1;dropTarget=0;collapsible=0;recursiveResize=0;outlineConnect=0;portConstraint=eastwest;newEdgeStyle={&quot;curved&quot;:0,&quot;rounded&quot;:0};" vertex="1" parent="1">
          <mxGeometry x="400" y="560" width="100" height="850" as="geometry" />
        </mxCell>
        <mxCell id="EFqk40wnp9_BddOgiKQ0-6" value="" style="html=1;points=[[0,0,0,0,5],[0,1,0,0,-5],[1,0,0,0,5],[1,1,0,0,-5]];perimeter=orthogonalPerimeter;outlineConnect=0;targetShapes=umlLifeline;portConstraint=eastwest;newEdgeStyle={&quot;curved&quot;:0,&quot;rounded&quot;:0};" vertex="1" parent="EFqk40wnp9_BddOgiKQ0-3">
          <mxGeometry x="45" y="80" width="10" height="50" as="geometry" />
        </mxCell>
        <mxCell id="EFqk40wnp9_BddOgiKQ0-4" value="hệ thống" style="shape=umlLifeline;perimeter=lifelinePerimeter;whiteSpace=wrap;html=1;container=1;dropTarget=0;collapsible=0;recursiveResize=0;outlineConnect=0;portConstraint=eastwest;newEdgeStyle={&quot;curved&quot;:0,&quot;rounded&quot;:0};" vertex="1" parent="1">
          <mxGeometry x="680" y="560" width="100" height="850" as="geometry" />
        </mxCell>
        <mxCell id="EFqk40wnp9_BddOgiKQ0-9" value="" style="html=1;points=[[0,0,0,0,5],[0,1,0,0,-5],[1,0,0,0,5],[1,1,0,0,-5]];perimeter=orthogonalPerimeter;outlineConnect=0;targetShapes=umlLifeline;portConstraint=eastwest;newEdgeStyle={&quot;curved&quot;:0,&quot;rounded&quot;:0};" vertex="1" parent="EFqk40wnp9_BddOgiKQ0-4">
          <mxGeometry x="45" y="110" width="10" height="170" as="geometry" />
        </mxCell>
        <mxCell id="EFqk40wnp9_BddOgiKQ0-5" value="hệ thống thanh toán" style="shape=umlLifeline;perimeter=lifelinePerimeter;whiteSpace=wrap;html=1;container=1;dropTarget=0;collapsible=0;recursiveResize=0;outlineConnect=0;portConstraint=eastwest;newEdgeStyle={&quot;curved&quot;:0,&quot;rounded&quot;:0};" vertex="1" parent="1">
          <mxGeometry x="960" y="560" width="100" height="850" as="geometry" />
        </mxCell>
        <mxCell id="EFqk40wnp9_BddOgiKQ0-7" value="1. người dùng nhập email và mật khẩu đăng nhập" style="html=1;verticalAlign=bottom;endArrow=block;curved=0;rounded=0;entryX=0;entryY=0;entryDx=0;entryDy=5;" edge="1" parent="1">
          <mxGeometry relative="1" as="geometry">
            <mxPoint x="170.5" y="645" as="sourcePoint" />
            <mxPoint x="446" y="645" as="targetPoint" />
          </mxGeometry>
        </mxCell>
        <mxCell id="EFqk40wnp9_BddOgiKQ0-10" value="2. gứi thông tin đăng nhập cho hệ thống" style="html=1;verticalAlign=bottom;endArrow=block;curved=0;rounded=0;entryX=0;entryY=0;entryDx=0;entryDy=5;" edge="1" target="EFqk40wnp9_BddOgiKQ0-9" parent="1" source="EFqk40wnp9_BddOgiKQ0-6">
          <mxGeometry relative="1" as="geometry">
            <mxPoint x="530" y="675" as="sourcePoint" />
          </mxGeometry>
        </mxCell>
        <mxCell id="EFqk40wnp9_BddOgiKQ0-11" value="4.2 Đăng nhập thành công" style="html=1;verticalAlign=bottom;endArrow=open;dashed=1;endSize=8;curved=0;rounded=0;" edge="1" parent="1">
          <mxGeometry x="0.0018" relative="1" as="geometry">
            <mxPoint x="170" y="830" as="targetPoint" />
            <mxPoint x="725" y="830" as="sourcePoint" />
            <mxPoint as="offset" />
          </mxGeometry>
        </mxCell>
        <mxCell id="EFqk40wnp9_BddOgiKQ0-12" value="alt" style="shape=umlFrame;whiteSpace=wrap;html=1;pointerEvents=0;" vertex="1" parent="1">
          <mxGeometry x="90" y="700" width="1120" height="690" as="geometry" />
        </mxCell>
        <mxCell id="EFqk40wnp9_BddOgiKQ0-14" value="4.1 Đăng nhập thất bại" style="html=1;verticalAlign=bottom;endArrow=open;dashed=1;endSize=8;curved=0;rounded=0;exitX=0;exitY=1;exitDx=0;exitDy=-5;" edge="1" parent="1">
          <mxGeometry relative="1" as="geometry">
            <mxPoint x="169.5" y="780" as="targetPoint" />
            <mxPoint x="725" y="780" as="sourcePoint" />
          </mxGeometry>
        </mxCell>
        <mxCell id="EFqk40wnp9_BddOgiKQ0-15" value="" style="endArrow=none;dashed=1;html=1;rounded=0;exitX=0.003;exitY=0.131;exitDx=0;exitDy=0;exitPerimeter=0;entryX=1.003;entryY=0.137;entryDx=0;entryDy=0;entryPerimeter=0;" edge="1" parent="1" source="EFqk40wnp9_BddOgiKQ0-12" target="EFqk40wnp9_BddOgiKQ0-12">
          <mxGeometry width="50" height="50" relative="1" as="geometry">
            <mxPoint x="620" y="960" as="sourcePoint" />
            <mxPoint x="670" y="910" as="targetPoint" />
          </mxGeometry>
        </mxCell>
        <mxCell id="EFqk40wnp9_BddOgiKQ0-16" value="" style="html=1;points=[[0,0,0,0,5],[0,1,0,0,-5],[1,0,0,0,5],[1,1,0,0,-5]];perimeter=orthogonalPerimeter;outlineConnect=0;targetShapes=umlLifeline;portConstraint=eastwest;newEdgeStyle={&quot;curved&quot;:0,&quot;rounded&quot;:0};" vertex="1" parent="1">
          <mxGeometry x="445" y="875" width="10" height="80" as="geometry" />
        </mxCell>
        <mxCell id="EFqk40wnp9_BddOgiKQ0-17" value="5. người dùng tìm và chọn sản phẩm" style="html=1;verticalAlign=bottom;endArrow=block;curved=0;rounded=0;entryX=0;entryY=0;entryDx=0;entryDy=5;" edge="1" target="EFqk40wnp9_BddOgiKQ0-16" parent="1" source="EFqk40wnp9_BddOgiKQ0-2">
          <mxGeometry x="0.0018" relative="1" as="geometry">
            <mxPoint x="375" y="855" as="sourcePoint" />
            <mxPoint as="offset" />
          </mxGeometry>
        </mxCell>
        <mxCell id="EFqk40wnp9_BddOgiKQ0-19" value="" style="html=1;points=[[0,0,0,0,5],[0,1,0,0,-5],[1,0,0,0,5],[1,1,0,0,-5]];perimeter=orthogonalPerimeter;outlineConnect=0;targetShapes=umlLifeline;portConstraint=eastwest;newEdgeStyle={&quot;curved&quot;:0,&quot;rounded&quot;:0};" vertex="1" parent="1">
          <mxGeometry x="730" y="745" width="10" height="40" as="geometry" />
        </mxCell>
        <mxCell id="EFqk40wnp9_BddOgiKQ0-20" value="3. xác thực tài khoản" style="html=1;align=left;spacingLeft=2;endArrow=block;rounded=0;edgeStyle=orthogonalEdgeStyle;curved=0;rounded=0;" edge="1" target="EFqk40wnp9_BddOgiKQ0-19" parent="1">
          <mxGeometry x="0.0118" relative="1" as="geometry">
            <mxPoint x="735" y="725" as="sourcePoint" />
            <Array as="points">
              <mxPoint x="765" y="755" />
            </Array>
            <mxPoint as="offset" />
          </mxGeometry>
        </mxCell>
        <mxCell id="EFqk40wnp9_BddOgiKQ0-22" value="" style="html=1;points=[[0,0,0,0,5],[0,1,0,0,-5],[1,0,0,0,5],[1,1,0,0,-5]];perimeter=orthogonalPerimeter;outlineConnect=0;targetShapes=umlLifeline;portConstraint=eastwest;newEdgeStyle={&quot;curved&quot;:0,&quot;rounded&quot;:0};" vertex="1" parent="1">
          <mxGeometry x="725" y="910" width="10" height="110" as="geometry" />
        </mxCell>
        <mxCell id="EFqk40wnp9_BddOgiKQ0-23" value="6. gửi thông tin sản phẩm lên hệ thống" style="html=1;verticalAlign=bottom;endArrow=block;curved=0;rounded=0;entryX=0;entryY=0;entryDx=0;entryDy=5;" edge="1" target="EFqk40wnp9_BddOgiKQ0-22" parent="1" source="EFqk40wnp9_BddOgiKQ0-16">
          <mxGeometry relative="1" as="geometry">
            <mxPoint x="655" y="915" as="sourcePoint" />
          </mxGeometry>
        </mxCell>
        <mxCell id="EFqk40wnp9_BddOgiKQ0-24" value="8. thông báo thêm sản phẩm vào giỏ hàng thành công" style="html=1;verticalAlign=bottom;endArrow=open;dashed=1;endSize=8;curved=0;rounded=0;exitX=0;exitY=1;exitDx=0;exitDy=-5;" edge="1" source="EFqk40wnp9_BddOgiKQ0-22" parent="1" target="EFqk40wnp9_BddOgiKQ0-2">
          <mxGeometry relative="1" as="geometry">
            <mxPoint x="655" y="985" as="targetPoint" />
          </mxGeometry>
        </mxCell>
        <mxCell id="EFqk40wnp9_BddOgiKQ0-25" value="" style="html=1;points=[[0,0,0,0,5],[0,1,0,0,-5],[1,0,0,0,5],[1,1,0,0,-5]];perimeter=orthogonalPerimeter;outlineConnect=0;targetShapes=umlLifeline;portConstraint=eastwest;newEdgeStyle={&quot;curved&quot;:0,&quot;rounded&quot;:0};" vertex="1" parent="1">
          <mxGeometry x="730" y="955" width="10" height="40" as="geometry" />
        </mxCell>
        <mxCell id="EFqk40wnp9_BddOgiKQ0-26" value="7. hệ thống cập nhật&lt;div&gt;&amp;nbsp;lại giỏ hàng&lt;/div&gt;" style="html=1;align=left;spacingLeft=2;endArrow=block;rounded=0;edgeStyle=orthogonalEdgeStyle;curved=0;rounded=0;" edge="1" target="EFqk40wnp9_BddOgiKQ0-25" parent="1">
          <mxGeometry relative="1" as="geometry">
            <mxPoint x="735" y="935" as="sourcePoint" />
            <Array as="points">
              <mxPoint x="765" y="965" />
            </Array>
          </mxGeometry>
        </mxCell>
        <mxCell id="EFqk40wnp9_BddOgiKQ0-27" value="loop" style="shape=umlFrame;whiteSpace=wrap;html=1;pointerEvents=0;" vertex="1" parent="1">
          <mxGeometry x="100" y="850" width="770" height="250" as="geometry" />
        </mxCell>
        <mxCell id="EFqk40wnp9_BddOgiKQ0-29" value="" style="html=1;points=[[0,0,0,0,5],[0,1,0,0,-5],[1,0,0,0,5],[1,1,0,0,-5]];perimeter=orthogonalPerimeter;outlineConnect=0;targetShapes=umlLifeline;portConstraint=eastwest;newEdgeStyle={&quot;curved&quot;:0,&quot;rounded&quot;:0};" vertex="1" parent="1">
          <mxGeometry x="1005" y="1130" width="10" height="200" as="geometry" />
        </mxCell>
        <mxCell id="EFqk40wnp9_BddOgiKQ0-30" value="8. người dùng chọn thanh toán đơn hàng" style="html=1;verticalAlign=bottom;endArrow=block;curved=0;rounded=0;" edge="1" parent="1">
          <mxGeometry relative="1" as="geometry">
            <mxPoint x="169.07142857142844" y="1120" as="sourcePoint" />
            <mxPoint x="445" y="1120" as="targetPoint" />
          </mxGeometry>
        </mxCell>
        <mxCell id="EFqk40wnp9_BddOgiKQ0-31" value="11.2 thông báo thanh toán thất bại" style="html=1;verticalAlign=bottom;endArrow=open;dashed=1;endSize=8;curved=0;rounded=0;exitX=0;exitY=1;exitDx=0;exitDy=-5;" edge="1" parent="1">
          <mxGeometry relative="1" as="geometry">
            <mxPoint x="169.5" y="1309.9999999999995" as="targetPoint" />
            <mxPoint x="1005" y="1309.9999999999995" as="sourcePoint" />
          </mxGeometry>
        </mxCell>
        <mxCell id="EFqk40wnp9_BddOgiKQ0-32" value="alt" style="shape=umlFrame;whiteSpace=wrap;html=1;pointerEvents=0;" vertex="1" parent="1">
          <mxGeometry x="130" y="1180" width="930" height="170" as="geometry" />
        </mxCell>
        <mxCell id="EFqk40wnp9_BddOgiKQ0-34" value="" style="endArrow=none;dashed=1;html=1;rounded=0;exitX=0.003;exitY=0.131;exitDx=0;exitDy=0;exitPerimeter=0;entryX=0.998;entryY=0.524;entryDx=0;entryDy=0;entryPerimeter=0;" edge="1" parent="1" target="EFqk40wnp9_BddOgiKQ0-32">
          <mxGeometry width="50" height="50" relative="1" as="geometry">
            <mxPoint x="130" y="1270" as="sourcePoint" />
            <mxPoint x="1050" y="1270" as="targetPoint" />
          </mxGeometry>
        </mxCell>
        <mxCell id="EFqk40wnp9_BddOgiKQ0-35" value="11.1 thông báo thanh toán thành công" style="html=1;verticalAlign=bottom;endArrow=open;dashed=1;endSize=8;curved=0;rounded=0;exitX=0;exitY=1;exitDx=0;exitDy=-5;" edge="1" parent="1">
          <mxGeometry relative="1" as="geometry">
            <mxPoint x="170" y="1230" as="targetPoint" />
            <mxPoint x="1005" y="1230" as="sourcePoint" />
          </mxGeometry>
        </mxCell>
        <mxCell id="EFqk40wnp9_BddOgiKQ0-37" value="10. hệ thống xác nhận đơn hàng và thanh toán" style="html=1;verticalAlign=bottom;endArrow=block;curved=0;rounded=0;" edge="1" parent="1" target="EFqk40wnp9_BddOgiKQ0-29">
          <mxGeometry relative="1" as="geometry">
            <mxPoint x="730" y="1170" as="sourcePoint" />
            <mxPoint x="960" y="1170" as="targetPoint" />
          </mxGeometry>
        </mxCell>
        <mxCell id="EFqk40wnp9_BddOgiKQ0-39" value="&lt;span style=&quot;background-color: light-dark(#ffffff, var(--ge-dark-color, #121212));&quot;&gt;khách hàng&lt;/span&gt;" style="text;html=1;whiteSpace=wrap;strokeColor=none;fillColor=none;align=center;verticalAlign=middle;rounded=0;" vertex="1" parent="1">
          <mxGeometry x="120" y="580" width="100" height="30" as="geometry" />
        </mxCell>
        <mxCell id="EFqk40wnp9_BddOgiKQ0-40" value="" style="html=1;points=[[0,0,0,0,5],[0,1,0,0,-5],[1,0,0,0,5],[1,1,0,0,-5]];perimeter=orthogonalPerimeter;outlineConnect=0;targetShapes=umlLifeline;portConstraint=eastwest;newEdgeStyle={&quot;curved&quot;:0,&quot;rounded&quot;:0};" vertex="1" parent="1">
          <mxGeometry x="445" y="1110" width="10" height="60" as="geometry" />
        </mxCell>
        <mxCell id="EFqk40wnp9_BddOgiKQ0-43" value="9. gửi thông tin đơn hàng cho hệ thống" style="html=1;verticalAlign=bottom;endArrow=block;curved=0;rounded=0;" edge="1" parent="1">
          <mxGeometry relative="1" as="geometry">
            <mxPoint x="454.07" y="1150" as="sourcePoint" />
            <mxPoint x="729.9985714285715" y="1150" as="targetPoint" />
          </mxGeometry>
        </mxCell>
        <mxCell id="EFqk40wnp9_BddOgiKQ0-44" value="" style="html=1;points=[[0,0,0,0,5],[0,1,0,0,-5],[1,0,0,0,5],[1,1,0,0,-5]];perimeter=orthogonalPerimeter;outlineConnect=0;targetShapes=umlLifeline;portConstraint=eastwest;newEdgeStyle={&quot;curved&quot;:0,&quot;rounded&quot;:0};" vertex="1" parent="1">
          <mxGeometry x="725" y="1120" width="10" height="60" as="geometry" />
        </mxCell>
      </root>
    </mxGraphModel>
  </diagram>
</mxfile>
